<svg xmlns="http://www.w3.org/2000/svg" viewBox="0 0 1345.6 503.4"><defs><style>.cls-1{fill:#fd8000}.cls-1,.cls-2,.cls-3,.cls-4,.cls-5{stroke:#4d4d4d;stroke-width:4px;stroke-miterlimit:10}.cls-2{fill:#fb970f}.cls-3{fill:#e4a409}.cls-4{fill:#fee101}.cls-5{fill:#fff}</style></defs><g id="Слой_2" data-name="Слой 2"><g id="Слой_9" data-name="Слой 9"><path class="cls-1" d="M1117 50h85.3L1192 264h-66.1L1117 50z"/><circle class="cls-1" cx="1160" cy="330" r="40"/><path class="cls-1" d="M843 51h230v70L960 288h126.5v81.4H843v-72.3L957 132H843V51zM716 50h90v320h-90zM579 50v184a45 45 0 0 1-45 45 45 45 0 0 1-45-45V50h-90v200a120 120 0 0 0 120 120h30a120 120 0 0 0 120-120V50ZM369 210a160 160 0 1 0-72.7 134l23.3 23.4 41.8-41.8-22.4-22.3a159.3 159.3 0 0 0 30-93.3Zm-160 70a70 70 0 1 1 64.3-42.4L242 206.1 200 248l29.2 29.1a70 70 0 0 1-20.3 3Z"/></g><g id="Слой_10" data-name="Слой 10"><path class="cls-2" d="M1105 38h85.3L1180 252h-66.1L1105 38z"/><circle class="cls-2" cx="1148" cy="318" r="40"/><path class="cls-2" d="M831 39h230v70L948 276h126.5v81.4H831v-72.3L945 120H831V39zM704 38h90v320h-90zM567 38v184a45 45 0 0 1-45 45 45 45 0 0 1-45-45V38h-90v200a120 120 0 0 0 120 120h30a120 120 0 0 0 120-120V38ZM357 198a160 160 0 1 0-72.7 134l23.3 23.4 41.8-41.8-22.4-22.3a159.3 159.3 0 0 0 30-93.3Zm-160 70a70 70 0 1 1 64.3-42.4L230 194.1 188 236l29.2 29.1a70 70 0 0 1-20.3 3Z"/></g><g id="Слой_11" data-name="Слой 11"><path class="cls-3" d="M1093.5 26.4h85.3l-10.3 214h-66.1l-8.9-214z"/><circle class="cls-3" cx="1136.5" cy="306.4" r="40"/><path class="cls-3" d="M819.5 27.4h230v70l-113 167H1063v81.4H819.5v-72.3l114-165.1h-114v-81zM692.5 26.4h90v320h-90zM555.5 26.4v184a45 45 0 0 1-45 45 45 45 0 0 1-45-45v-184h-90v200a120 120 0 0 0 120 120h30a120 120 0 0 0 120-120v-200ZM345.5 186.4a160 160 0 1 0-72.7 134l23.3 23.4L338 302l-22.4-22.4a159.3 159.3 0 0 0 30-93.2Zm-160 70a70 70 0 1 1 64.3-42.4l-31.5-31.5-41.7 41.8 29.1 29.1a69.9 69.9 0 0 1-20.2 3Z"/></g><g id="Слой_7" data-name="Слой 7"><g id="_" data-name="!"><path class="cls-4" d="M1082.3 15.2h85.3l-10.3 214h-66.1l-8.9-214z"/><circle class="cls-4" cx="1125.3" cy="295.2" r="40"/></g><path class="cls-4" d="M808.3 16.2h230v70l-113 167h126.5v81.4H808.3v-72.3l114-165.1h-114v-81z" id="z"/><path class="cls-4" d="M681.3 15.2h90v320h-90z" id="i"/><path class="cls-4" d="M544.3 15.2v184a45 45 0 0 1-45 45 45 45 0 0 1-45-45v-184h-90v200a120 120 0 0 0 120 120h30a120 120 0 0 0 120-120v-200Z" id="u"/><path class="cls-4" d="M333.3 174.2a160 160 0 1 0-72.7 134l23.3 23.4 41.8-41.8-22.4-22.3a159.2 159.2 0 0 0 30-93.3Zm-160 70a70 70 0 1 1 64.3-42.4l-31.4-31.5-41.8 41.7 29.2 29.2a70 70 0 0 1-20.3 3Z" id="q"/></g><g id="Слой_8" data-name="Слой 8"><path class="cls-5" d="M1070 2h85.3L1145 216h-66.1L1070 2z"/><circle class="cls-5" cx="1113" cy="282" r="40"/><path class="cls-5" d="M796 3h230v70L913 240h126.5v81.4H796v-72.3L910 84H796V3zM669 2h90v320h-90zM532 2v184a45 45 0 0 1-45 45 45 45 0 0 1-45-45V2h-90v200a120 120 0 0 0 120 120h30a120 120 0 0 0 120-120V2ZM322 162a160 160 0 1 0-72.7 134l23.3 23.4 41.8-41.8-22.4-22.3a159.3 159.3 0 0 0 30-93.3Zm-160 70a70 70 0 1 1 64.3-42.4L195 158.1 153 200l29.2 29.1a70 70 0 0 1-20.3 3Z"/></g><text transform="matrix(.97 -.23 .23 .97 806.2 461.6)" style="font-size:141.38px;stroke:#000;stroke-width:.5px;font-family:Consolas;stroke-miterlimit:10" id="Слой_12" data-name="Слой 12">ver 1.0</text></g></svg>