<?xml version="1.0" standalone="no"?>
<!DOCTYPE svg PUBLIC "-//W3C//DTD SVG 20010904//EN"
 "http://www.w3.org/TR/2001/REC-SVG-20010904/DTD/svg10.dtd">
<svg version="1.0" xmlns="http://www.w3.org/2000/svg"
 width="256.000000pt" height="256.000000pt" viewBox="0 0 256.000000 256.000000"
 preserveAspectRatio="xMidYMid meet">
<metadata>
Created by potrace 1.14, written by Peter Selinger 2001-2017
</metadata>
<g transform="translate(0.000000,256.000000) scale(0.100000,-0.100000)"
fill="#000000" stroke="none">
<path d="M0 1280 l0 -1280 1280 0 1280 0 0 1280 0 1280 -1280 0 -1280 0 0
-1280z m2110 873 c1 -66 -40 -926 -46 -970 l-5 -43 -158 0 -157 0 -17 443
c-10 243 -20 479 -24 525 l-6 82 207 0 206 0 0 -37z m60 -55 c0 -48 -41 -896
-46 -955 l-6 -63 -154 0 -154 0 0 25 0 25 129 0 130 0 5 43 c3 23 12 200 21
392 25 571 24 555 51 555 18 0 24 -6 24 -22z m-1145 -32 c151 -48 290 -154
372 -284 22 -34 43 -59 48 -55 4 5 5 2 1 -4 -4 -7 4 -45 18 -85 14 -40 27 -82
30 -93 3 -11 3 -1 1 22 -3 23 -14 63 -25 89 -11 26 -18 49 -15 52 8 9 56 -110
77 -193 26 -102 21 -256 -12 -355 -24 -70 -78 -180 -90 -180 -4 0 -14 8 -24
18 -15 18 -15 22 10 65 33 61 24 61 -11 1 l-27 -46 46 -47 46 -47 -88 -87 -88
-87 -44 45 c-49 49 -57 52 -86 29 -18 -14 -18 -15 4 -4 19 9 27 8 43 -6 10 -9
19 -20 19 -24 0 -12 -152 -77 -210 -91 -77 -18 -231 -16 -310 4 -75 19 -235
97 -235 113 0 7 -27 32 -60 56 -88 65 -150 141 -200 243 -112 232 -98 465 42
677 92 141 260 255 428 292 98 22 237 14 340 -18z m1195 -43 c1 -70 -41 -958
-46 -981 -4 -22 -5 -23 -157 -20 -135 3 -152 5 -155 21 -3 15 9 17 137 17 140
0 141 0 141 23 -1 12 9 237 22 500 21 444 23 477 40 477 14 0 18 -8 18 -37z
m-634 -573 c31 -145 8 -307 -62 -447 -20 -40 -39 -73 -42 -73 -3 0 -13 7 -23
16 -16 15 -15 20 21 87 90 167 105 366 46 572 -4 11 5 -5 20 -35 14 -30 32
-84 40 -120z m426 -480 c61 -41 83 -84 83 -160 0 -76 -22 -119 -83 -161 -53
-36 -153 -34 -209 3 -117 77 -107 263 19 327 57 29 141 25 190 -9z m-582 -185
l-85 -85 -20 20 -20 20 85 85 85 85 20 -20 20 -20 -85 -85z m711 41 c50 -111
-9 -234 -128 -265 -51 -14 -116 0 -157 32 l-27 22 79 0 c70 0 82 3 115 27 65
50 82 84 82 165 0 39 4 69 9 66 4 -3 17 -24 27 -47z m-598 6 c15 -17 12 -23
-66 -100 l-83 -83 -19 21 c-19 21 -18 21 60 100 44 44 82 80 86 80 3 0 13 -8
22 -18z m653 -67 c17 -41 18 -102 3 -142 -23 -62 -109 -123 -174 -123 -26 0
-115 33 -115 42 0 2 20 2 44 0 57 -5 109 12 152 51 49 42 67 83 68 150 0 31 2
57 4 57 2 0 10 -16 18 -35z m-916 -25 c0 -11 -150 -76 -210 -91 -76 -18 -231
-16 -308 5 -61 16 -172 61 -172 69 0 2 33 -8 73 -22 62 -21 90 -25 202 -25
117 -1 139 2 216 27 47 16 103 39 125 52 36 22 40 22 57 8 9 -9 17 -19 17 -23z"/>
<path d="M723 1701 c-28 -9 -68 -30 -88 -45 -36 -28 -95 -109 -95 -130 1 -6 9
5 20 25 47 88 136 146 247 158 65 8 65 8 18 9 -27 1 -73 -7 -102 -17z"/>
<path d="M900 1701 c34 -11 113 -52 108 -56 -2 -2 -26 3 -53 11 -137 43 -294
-29 -362 -165 -20 -39 -26 -183 -10 -231 l9 -25 -17 22 c-9 13 -22 40 -30 60
-7 21 -14 32 -14 25 -2 -22 28 -82 58 -121 17 -21 58 -53 93 -71 55 -29 72
-34 139 -34 43 -1 81 3 85 7 4 4 -20 36 -54 70 l-62 62 88 88 87 87 65 -65
c35 -36 68 -65 71 -65 12 0 22 61 21 127 -1 75 -28 143 -80 196 -40 41 -120
88 -149 86 -12 0 -10 -3 7 -8z m88 -72 c52 -22 55 -31 5 -17 -96 26 -231 -18
-302 -98 -54 -62 -74 -125 -69 -224 l3 -79 -20 37 c-15 28 -20 56 -20 117 0
70 4 87 30 134 76 137 231 191 373 130z"/>
<path d="M1503 1485 c0 -22 2 -30 4 -17 2 12 2 30 0 40 -3 9 -5 -1 -4 -23z"/>
<path d="M526 1488 c-3 -13 -5 -48 -4 -78 1 -52 1 -51 8 20 8 79 7 96 -4 58z"/>
<path d="M1502 1354 c-1 -17 -4 -47 -7 -65 l-5 -34 11 34 c5 18 8 47 6 65 l-4
31 -1 -31z"/>
<path d="M1463 1188 c-12 -35 -20 -64 -18 -66 5 -5 46 109 43 119 -2 5 -13
-19 -25 -53z"/>
<path d="M510 800 c19 -11 40 -19 45 -19 6 0 -6 8 -25 19 -19 11 -39 19 -45
19 -5 0 6 -8 25 -19z"/>
<path d="M1070 780 c-8 -5 -10 -10 -5 -10 6 0 17 5 25 10 8 5 11 10 5 10 -5 0
-17 -5 -25 -10z"/>
<path d="M595 765 c17 -8 37 -14 45 -14 8 0 -1 7 -20 14 -46 18 -64 17 -25 0z"/>
<path d="M970 750 c-20 -6 -21 -8 -5 -8 11 0 29 3 40 8 25 11 -1 11 -35 0z"/>
<path d="M668 743 c6 -2 18 -2 25 0 6 3 1 5 -13 5 -14 0 -19 -2 -12 -5z"/>
<path d="M723 733 c9 -2 25 -2 35 0 9 3 1 5 -18 5 -19 0 -27 -2 -17 -5z"/>
<path d="M888 733 c12 -2 30 -2 40 0 9 3 -1 5 -23 4 -22 0 -30 -2 -17 -4z"/>
</g>
</svg>
