<svg version="1.2" xmlns="http://www.w3.org/2000/svg" viewBox="0 0 119 91" width="119" height="91"><defs><clipPath clipPathUnits="userSpaceOnUse" id="cp1"><path d="m100.66 76.67c-3.64 7.16-21.9 14.38-41 14.17-18.01-0.2-36.91-7.42-40.34-14.17-6.19-12.22 2.87-22.45 2.87-22.94 0-20.82 16.86-37.7 37.67-37.74q0.02 0 0.04 0 0.02 0 0.04 0 0.02 0 0.05 0 0.03 0 0.05 0 0.02 0 0.04 0 0.02 0 0.03 0c20.81 0.04 37.67 16.92 37.67 37.74 0 0.49 9.07 10.72 2.88 22.94z"/></clipPath></defs><style>.a{fill:#ea692b}.b{fill:#f3dbbd}.c{fill:#f6f3cf}.d{fill:#e96332}.e{fill:#a84720}.f{fill:#3b3e43}.g{fill:#fff}.h{fill:#3d342f}</style><path class="a" d="m100.1 1.2c2.7 2.7 1.9 20.7-2.4 26.8-4.4 6.1-13.2 7.2-19.8 2.6-6.5-4.7-8.3-13.4-4-19.5 4.3-6.1 23.5-12.6 26.2-9.9z"/><path class="b" d="m95.6 5.4c3.1 1.6-0.2 15.4-2.6 19.5-2.4 4-7.9 5.2-12.3 2.6-4.4-2.6-6-8-3.5-12.1 2.4-4 15.3-11.6 18.4-10z"/><path class="a" d="m47.4 11.1c4.3 6.1 2.5 14.8-4.1 19.5-6.5 4.6-15.3 3.5-19.7-2.6-4.3-6.1-5.1-24.1-2.4-26.8 2.7-2.7 21.9 3.8 26.2 9.9z"/><path class="b" d="m44.1 15.4c2.5 4.1 0.9 9.5-3.5 12.1-4.4 2.6-9.9 1.4-12.3-2.6-2.4-4.1-5.7-17.9-2.6-19.5 3.1-1.6 16 6 18.4 10z"/><path class="c" d="m107.6 67.9q-0.3-0.2-0.7-0.4 1.4 0.5 2.3 1.2-0.7-0.4-1.6-0.8z"/><path class="c" d="m109.2 68.7q-0.7-0.4-1.6-0.8 1 0.5 1.6 0.8z"/><path class="c" d="m12.2 67.9q-0.8 0.4-1.6 0.8 0.9-0.7 2.3-1.2-0.3 0.2-0.7 0.4z"/><path class="c" d="m10.6 68.7q0.7-0.3 1.6-0.8-0.8 0.4-1.6 0.8z"/><path class="d" d="m59.9 16q0 0 0 0 0 0 0 0z"/><path class="e" d="m60 16q-0.1 0-0.1 0 0 0 0.1 0z"/><path class="a" d="m100.7 76.7c-3.7 7.1-21.9 14.4-41 14.1-18-0.2-37-7.4-40.4-14.1-6.2-12.2 2.9-22.5 2.9-23 0-20.8 16.9-37.7 37.7-37.7q0 0 0 0 0 0 0 0 0.1 0 0.1 0 0 0 0 0 0.1 0 0.1 0 0 0 0 0c20.8 0 37.7 16.9 37.7 37.7 0 0.5 9 10.8 2.9 23z"/><circle class="f" cx="75.2" cy="47.7" r="5.8"/><circle class="g" cx="77" cy="43.2" r="3"/><circle class="f" cx="46.5" cy="47.7" r="5.8"/><circle class="g" cx="44.8" cy="43.2" r="3"/><g clip-path="url(#cp1)"><ellipse class="b" cx="59.7" cy="79.8" rx="28.1" ry="15.9"/></g><path class="f" d="m67.8 63.9c0 2.9-3.4 6.6-7.6 6.6-4.2 0-7.6-3.7-7.6-6.6 0-2.9 3.4-5.3 7.6-5.3 4.2 0 7.6 2.4 7.6 5.3z"/><path class="f" d="m52.2 79.5q-3.1 0-6.9-3.1c-0.3-0.3-0.4-0.8-0.1-1.1 0.3-0.4 0.8-0.4 1.1-0.1 2.9 2.4 5.5 3.2 7.5 2.4 4.1-1.5 5.3-8.9 5.3-8.9 0.1-0.5 0.5-0.8 0.9-0.7 0.5 0.1 0.7 0.5 0.7 0.9-0.1 0.3-1.4 8.3-6.3 10.2q-1.1 0.4-2.2 0.4z"/><path class="f" d="m66.8 80.2q-1 0-1.9-0.4c-4.7-1.9-5.5-10.6-5.6-10.9 0-0.5 0.3-0.9 0.7-0.9 0.5 0 0.8 0.3 0.9 0.7 0.2 2.3 1.4 8.4 4.6 9.6 1.7 0.7 3.9-0.1 6.6-2.3 0.3-0.3 0.8-0.3 1.1 0 0.3 0.4 0.2 0.9-0.1 1.1q-3.5 3.1-6.3 3.1z"/><path class="g" d="m65.2 62.3c-0.2 0.7-1.2 1.1-2.4 0.8-1.1-0.3-1.8-1.1-1.6-1.8 0.1-0.7 1.2-1 2.3-0.8 1.1 0.3 1.9 1.1 1.7 1.8z"/><path class="h" d="m40.8 70.1q-0.3 0-0.6-0.2c-0.1-0.2-9.2-8.7-35-12.7-0.4 0-0.8-0.5-0.7-0.9 0.1-0.5 0.5-0.8 1-0.7 26.4 4 35.5 12.7 35.9 13 0.3 0.4 0.3 0.9 0 1.2q-0.2 0.3-0.6 0.3z"/><path class="h" d="m39.3 73.5q-0.2 0-0.4-0.1c-0.2-0.1-11.2-6.1-37.1-3.4-0.5 0.1-0.9-0.3-0.9-0.8-0.1-0.4 0.3-0.8 0.7-0.9 26.6-2.7 37.6 3.4 38.1 3.6 0.4 0.2 0.6 0.8 0.3 1.2-0.1 0.2-0.4 0.4-0.7 0.4z"/><path class="h" d="m1.4 82.7c-0.3 0-0.6-0.2-0.8-0.6-0.1-0.4 0.1-0.9 0.6-1 25.3-8.7 37.4-5.2 37.9-5.1 0.4 0.2 0.7 0.6 0.5 1.1-0.1 0.4-0.6 0.7-1 0.6-0.1-0.1-12.2-3.5-36.9 5q-0.1 0-0.3 0z"/><path class="h" d="m78.3 71.4q-0.3 0-0.6-0.2c-0.3-0.4-0.3-0.9 0-1.2 0.4-0.4 9.5-9.1 35.9-13.1 0.5-0.1 0.9 0.2 1 0.7 0.1 0.4-0.2 0.9-0.7 0.9-25.9 4-34.9 12.6-35 12.7q-0.3 0.2-0.6 0.2z"/><path class="h" d="m79.8 74.8c-0.3 0-0.5-0.2-0.7-0.4-0.2-0.4-0.1-0.9 0.3-1.2 0.5-0.2 11.5-6.3 38.1-3.6 0.4 0.1 0.8 0.5 0.7 1 0 0.4-0.4 0.8-0.9 0.7-26-2.7-36.9 3.3-37 3.4q-0.2 0.1-0.5 0.1z"/><path class="h" d="m117.7 84q-0.2 0-0.3 0c-24.7-8.5-36.7-5.1-36.9-5-0.4 0.1-0.9-0.2-1-0.6-0.2-0.4 0.1-0.9 0.5-1.1 0.5-0.1 12.7-3.6 38 5.1 0.4 0.1 0.6 0.6 0.5 1.1-0.1 0.3-0.5 0.5-0.8 0.5z"/></svg>